<svg version="1.1" xmlns="http://www.w3.org/2000/svg" viewBox="0 0 240 240" xml:space="preserve">
<path fill="#FFFEFE" opacity="1" stroke="none" d="M1,82 C1,55.67 1.04,29.83 0.93,4 C0.92,1.5 1.5,0.93 4,0.94 C82,1.01 160,1.01 238,0.94 C240.5,0.93 241.07,1.5 241.06,4 C240.99,82 240.99,160 241.06,238 C241.07,240.5 240.5,241.07 238,241.06 C160,240.99 82,240.96 4,241.12 C0.56,241.12 0.98,239.68 0.98,237.5 C1.01,185.83 1,134.17 1,82 z"/>
<path fill="#E36C23" opacity="1" stroke="none" d="M114.24,154.93 C106.33,159.68 102.99,167.07 101.14,175.17 C98.51,186.68 96.51,198.33 93.83,209.82 C92.17,216.89 90.69,224.13 85.35,229.78 C79.16,236.33 70.45,238.11 62.26,234.36 C55.06,231.06 50.51,225.26 46.8,218.61 C39.04,204.69 35.36,189.59 34.02,173.85 C33.26,165.08 32.82,156.28 31.96,147.52 C31.12,138.97 28.08,131.04 24.2,123.44 C13.49,102.49 9.11,80.23 10.57,56.83 C12.55,24.95 37.86,3.96 69.65,7.32 C80.26,8.45 90.22,11.48 99.6,16.24 C114.12,23.6 128.38,24.2 143.14,16.91 C155.16,10.98 167.84,7.65 181.49,7.61 C207.57,7.52 225.2,23.04 230.04,47.86 C234.64,71.5 231.72,94.68 221.54,116.1 C213.06,133.94 209.85,152.24 209.06,171.54 C208.46,186.08 205.43,200.21 199.05,213.47 C195.9,220 192.05,226 186.22,230.44 C173.7,239.99 159.77,236.46 153.55,221.96 C149.33,212.11 148.2,201.41 146.03,191 C143.96,181.11 142.93,170.9 137.09,162.17 C131.57,153.92 124.18,151.49 114.24,154.93 z"/>
<path fill="#FFFEFD" opacity="1" stroke="none" d="M199.79,22.82 C215.65,32.34 220.43,47.35 220.87,64.21 C221.35,82.28 217.65,99.68 209.62,115.89 C202.06,131.16 199.13,147.13 198.78,164.08 C198.44,180.94 195.21,197.45 186.84,212.5 C184.81,216.15 182.54,219.61 178.94,222 C172.35,226.38 166.02,224.57 163.33,217.15 C160.15,208.36 158.52,199.18 156.98,189.98 C155.31,179.98 153.81,169.93 149.47,160.59 C144.32,149.52 136.45,142.14 123.64,141.64 C110.17,141.12 100.86,147.49 94.92,159.36 C89.38,170.42 88.12,182.55 86.01,194.46 C84.76,201.51 83.43,208.52 80.96,215.28 C76.7,226.95 68.73,228.36 60.59,218.85 C52.86,209.82 49.77,198.76 47.03,187.58 C43.97,175.05 44.24,162.15 43.1,149.42 C42.23,139.68 39.78,130.51 35.49,121.74 C26.29,102.97 20.46,83.39 21.27,62.19 C22.13,39.36 33.33,23.97 53.26,19.48 C64.42,16.97 75.47,18.61 86.13,22.6 C90.48,24.23 94.79,26.03 99,28.01 C115.8,35.9 132.17,34.23 148.48,26.33 C164.12,18.76 180.3,15.92 197.59,22.05 C198.58,22.05 199.12,22.22 199.79,22.82 z"/>
<path fill="#E47129" opacity="1" stroke="none" d="M209.54,20.39 C209.3,19.58 209.59,19.29 210.22,19.41 C210.35,19.44 210.53,19.62 210.55,19.75 C210.64,20.39 210.33,20.65 209.54,20.39 z"/>
<path fill="#E47129" opacity="1" stroke="none" d="M199.96,22.73 C199.44,22.86 198.89,22.69 198.16,22.29 C198.87,20.92 199.5,21.12 199.96,22.73 z"/>
<path fill="#E36A20" opacity="1" stroke="none" d="M86.88,92.81 C86.52,93.82 86.25,94.43 86.02,95.05 C83.76,100.95 79.3,102.84 73.41,100.67 C70.95,99.76 71.68,97.98 72.12,96.59 C73.56,92.01 75.2,87.49 76.89,82.99 C81.75,70.12 86.8,57.32 91.48,44.38 C92.54,41.47 93.91,40.67 96.84,40.68 C108,40.74 107.95,40.67 112.08,51.29 C117.48,65.2 123,79.06 128.44,92.96 C129.05,94.5 129.57,96.09 129.95,97.7 C130.13,98.45 130.2,99.74 129.77,100.05 C126.84,102.2 123.4,100.71 120.2,101.13 C118.37,101.38 117.64,100.28 117.01,98.71 C112.65,87.91 112.62,87.92 101.13,87.98 C98.46,88 95.77,88.27 93.15,87.93 C89.47,87.45 87.55,88.88 86.88,92.81 z"/>
<path fill="#E26E26" opacity="1" stroke="none" d="M131.81,125.25 C137.13,123.5 140.88,120.36 143.79,116.14 C144.95,114.44 146.2,112.85 148.56,113.2 C150.66,113.5 153.06,113.55 154.16,115.72 C155.11,117.6 153.66,119.2 152.7,120.68 C139.11,141.71 104.46,141.26 90.78,119.84 C89.58,117.96 86.77,115.35 89.66,113.45 C92.38,111.66 95.76,111.94 98.56,114.92 C107.52,124.44 118.48,128.12 131.81,125.25 z"/>
<path fill="#E16E28" opacity="1" stroke="none" d="M141.63,69.38 C139.12,69.02 136.94,68.75 134.81,68.97 C131.21,69.32 129.86,68.2 129.83,64.32 C129.8,60.19 131.7,59.77 135.01,59.81 C141.96,59.89 141.98,59.77 142.18,52.74 C142.24,50.56 142.09,48.32 144.56,47.22 C146.2,46.49 147.62,46.86 149.25,47.67 C151.6,48.82 150.84,50.73 150.87,52.41 C151.02,59.77 150.99,60.01 158.16,59.72 C162.19,59.56 163.13,60.94 163.15,64.78 C163.18,69.33 159.52,68.74 157.67,68.57 C151.36,67.97 150.04,70.82 150.78,76.29 C151.15,79.05 151.46,81.99 146.84,81.97 C142.38,81.94 142.1,79.51 142.25,76.16 C142.34,74.01 142.09,71.85 141.63,69.38 z"/>
<path fill="#FEFAF7" opacity="1" stroke="none" d="M93.84,72.76 C95.99,66.63 98.02,60.86 100.47,53.92 C103.13,61.18 105.37,67.32 107.63,73.44 C108.3,75.24 108,76.27 105.81,76.28 C102.49,76.3 99.18,76.45 95.87,76.55 C93.21,76.62 92.66,75.39 93.84,72.76 z"/>
</svg>
